<?xml version="1.0" encoding="UTF-8"?>
<svg version="1.1" xmlns="http://www.w3.org/2000/svg" width="447" height="447">
<path d="M0 0 C147.51 0 295.02 0 447 0 C447 147.51 447 295.02 447 447 C299.49 447 151.98 447 0 447 C0 299.49 0 151.98 0 0 Z " fill="#2CA01C" transform="translate(0,0)"/>
<path d="M0 0 C147.51 0 295.02 0 447 0 C447 147.51 447 295.02 447 447 C299.49 447 151.98 447 0 447 C0 299.49 0 151.98 0 0 Z M170 29 C169.20029785 29.24379395 168.4005957 29.48758789 167.57666016 29.73876953 C117.85664719 45.03651357 79.48226481 75.73244936 51 119 C50.32839844 120.01707031 49.65679687 121.03414063 48.96484375 122.08203125 C29.5446855 153.4389298 22.66273719 188.9603067 22.625 225.3125 C22.62291534 226.12758026 22.62083069 226.94266052 22.61868286 227.78244019 C22.62294257 242.44785954 23.62425898 256.71706606 27.75 270.875 C28.01167969 271.79917725 28.27335937 272.72335449 28.54296875 273.67553711 C32.43647295 287.23876392 36.6909137 300.34879553 43 313 C43.28037109 313.59280762 43.56074219 314.18561523 43.84960938 314.79638672 C46.56273587 320.43839248 49.82181789 325.64269478 53.25 330.875 C53.8284668 331.76050537 54.40693359 332.64601074 55.00292969 333.55834961 C59.02770346 339.66019012 63.26603676 345.42773077 68 351 C68.680625 351.86238281 69.36125 352.72476562 70.0625 353.61328125 C98.23564218 389.18187325 142.51466729 415.26950042 187.5480957 421.65185547 C189.43208328 421.91936182 191.31292965 422.20906459 193.19213867 422.50830078 C203.43166475 424.0420709 213.47323707 424.40564812 223.8125 424.375 C225.09448776 424.37169174 225.09448776 424.37169174 226.40237427 424.36831665 C273.77378644 424.12308022 317.54668771 407.24239408 354 377 C354.56638184 376.55253418 355.13276367 376.10506836 355.71630859 375.64404297 C357.18054578 374.47342365 358.59504665 373.24114713 360 372 C360 371.34 360 370.68 360 370 C360.59941406 369.73832031 361.19882812 369.47664063 361.81640625 369.20703125 C364.13061764 367.92779812 365.29659445 366.73749558 366.9375 364.6875 C368.6758452 362.5327267 370.43484829 360.56585993 372.3984375 358.60546875 C380.80456091 350.18672354 387.56259698 340.65516205 393.93945312 330.66015625 C394.81709543 329.2863147 395.71112463 327.92295687 396.609375 326.5625 C404.69507424 313.84342255 411.14132087 299.54425212 415 285 C415.41859897 283.57026623 415.84211564 282.1419666 416.26953125 280.71484375 C417.53666465 276.48288189 418.79578717 272.2503477 420 268 C420.33773438 266.84113281 420.67546875 265.68226563 421.0234375 264.48828125 C424.28597068 250.89439301 424.40383394 236.95847342 424.375 223.0625 C424.37468277 221.64775894 424.37468277 221.64775894 424.37435913 220.20443726 C424.327801 199.3563248 422.21860175 179.69110937 415 160 C414.60941406 158.91203125 414.21882813 157.8240625 413.81640625 156.703125 C412.6032874 153.44162515 411.31960865 150.2198451 410 147 C409.75024414 146.38157227 409.50048828 145.76314453 409.24316406 145.12597656 C396.79042032 114.50472544 375.27729609 86.03957505 349 66 C348.47583496 65.59410645 347.95166992 65.18821289 347.41162109 64.77001953 C331.51163975 52.49983352 314.97608341 42.70617806 296.09155273 35.79223633 C294.21848214 35.08275645 292.37939738 34.28502826 290.546875 33.4765625 C277.6392495 28.10312369 263.89985628 25.09837916 250 24 C249.04005127 23.91532471 248.08010254 23.83064941 247.09106445 23.7434082 C221.76260985 21.60882798 194.46051199 21.34719967 170 29 Z " fill="#FEFEFE" transform="translate(0,0)"/>
<path d="M0 0 C9.09651696 0 16.14599056 3.03501661 22.9375 9.1875 C31.1477132 18.71713478 31.7108061 28.79029904 31.56762695 40.76245117 C31.56621404 42.42907671 31.56701321 44.09570536 31.56983948 45.7623291 C31.57126555 50.25561366 31.54200796 54.74822167 31.50696969 59.24134994 C31.47557032 63.94848752 31.47276479 68.6556431 31.46684265 73.36286926 C31.45134393 82.262684 31.41036958 91.16218917 31.3600952 100.06186801 C31.30407767 110.19973402 31.27668411 120.33761533 31.25161803 130.47559774 C31.19944995 151.31723749 31.11158539 172.15859919 31 193 C38.19047394 193.03175339 45.37988539 193.0249322 52.570261 192.97153378 C55.91099393 192.94787936 59.24990758 192.94030831 62.59082031 192.95532227 C82.37981585 193.03302775 95.10076875 192.21531418 109.9140625 178.2109375 C121.90822541 165.49802326 125.47245752 152.42598115 125.21484375 135.19921875 C125.03194868 130.08610868 124.00951004 125.70519424 122 121 C121.68289063 120.195625 121.36578125 119.39125 121.0390625 118.5625 C115.55213775 106.10990483 104.83296368 96.38208164 92.484375 90.87890625 C82.98819312 87.50356269 71.79472297 86.55131926 62 89 C57.05 89 52.1 89 47 89 C47 78.11 47 67.22 47 56 C61.01872247 56 61.01872247 56 67.5 57.25 C68.22501709 57.38639893 68.95003418 57.52279785 69.69702148 57.66333008 C86.7138304 61.01469763 102.2228506 68.20731949 115 80 C115.70382812 80.61230469 116.40765625 81.22460938 117.1328125 81.85546875 C126.19916973 90.19296197 132.50132318 101.64704 137 113 C137.30679688 113.73347656 137.61359375 114.46695313 137.9296875 115.22265625 C140.39321368 121.68647971 140.75427772 128.13423055 141 135 C141.03254883 135.68803711 141.06509766 136.37607422 141.09863281 137.08496094 C142.07053333 159.08525452 135.89430113 179.40168984 121 196 C120.33484375 196.89332031 120.33484375 196.89332031 119.65625 197.8046875 C107.27804438 214.18316688 86.19833837 221.16033233 67 225 C44.89 225 22.78 225 0 225 C0 150.75 0 76.5 0 0 Z " fill="#FAFDFA" transform="translate(235,83)"/>
<path d="M0 0 C0 73.92 0 147.84 0 224 C-10.73288828 224 -16.55101606 220.94900598 -24.11328125 213.55078125 C-31.0997993 204.10524028 -31.7029491 195.69331497 -31.56762695 184.35107422 C-31.5662144 182.68459618 -31.5670125 181.01811503 -31.56983948 179.35163879 C-31.57126697 174.85416375 -31.54198603 170.35736309 -31.50696969 165.860044 C-31.47559433 161.15023106 -31.47276667 156.4404006 -31.46684265 151.73049927 C-31.45133694 142.82356833 -31.410353 133.91694629 -31.3600952 125.01015103 C-31.3040996 114.8650531 -31.27668959 104.71994 -31.25161803 94.57472587 C-31.19943408 73.71631188 -31.11155575 52.85817544 -31 32 C-37.74028236 31.94882957 -44.48051368 31.91407122 -51.22094727 31.89013672 C-53.50872672 31.88014712 -55.79649364 31.86655083 -58.08422852 31.84912109 C-86.71317052 31.35842046 -86.71317052 31.35842046 -110.5 46.0625 C-111.68717918 47.35647564 -112.8562664 48.66746827 -114 50 C-114.86625 50.99 -115.7325 51.98 -116.625 53 C-125.39898316 66.32567408 -127.15256672 81.34026362 -124.296875 96.80859375 C-120.35440137 110.99147558 -111.64548533 123.19439376 -98.8125 130.5 C-91.26098441 134.63595916 -85.3895551 136.30212483 -76.8828125 136.1953125 C-76.02565643 136.1924826 -75.16850037 136.18965271 -74.28536987 136.18673706 C-71.56510068 136.17559999 -68.84516859 136.1505076 -66.125 136.125 C-64.27344228 136.11496182 -62.42187936 136.10583744 -60.5703125 136.09765625 C-56.04664268 136.07738891 -51.52369581 136.03822842 -47 136 C-47 146.23 -47 156.46 -47 167 C-73.48148995 167.79049224 -96.2471921 162.00072048 -116.12841797 143.39086914 C-122.75923207 136.93019915 -127.65983448 130.2156664 -132 122 C-132.57621094 120.93910156 -133.15242188 119.87820313 -133.74609375 118.78515625 C-137.25223313 111.84854957 -138.87649507 105.52721428 -139.67578125 97.80078125 C-139.83270309 95.05009815 -139.83270309 95.05009815 -141 93 C-142.21242284 78.74252124 -141.79419807 65.17990596 -136 52 C-135.72124023 51.33709961 -135.44248047 50.67419922 -135.15527344 49.99121094 C-125.83499155 28.20260068 -108.87625138 12.86780883 -87 4 C-59.45872482 -5.51184835 -27.35218159 0 0 0 Z " fill="#FAFDFA" transform="translate(212,140)"/>
<path d="M0 0 C1.94566808 2.91850212 2.5152457 4.57622848 3.1875 7.9375 C3.36667969 8.79214844 3.54585938 9.64679688 3.73046875 10.52734375 C4.00123705 13.01134859 3.77059444 14.64449502 3 17 C3 16.34 3 15.68 3 15 C2.34 15 1.68 15 1 15 C0.67 10.05 0.34 5.1 0 0 Z " fill="#6FBC65" transform="translate(418,173)"/>
<path d="M0 0 C0.33 0 0.66 0 1 0 C1.33 1.65 1.66 3.3 2 5 C2.33 5 2.66 5 3 5 C2.67 9.29 2.34 13.58 2 18 C1.67 18 1.34 18 1 18 C0.67 12.06 0.34 6.12 0 0 Z " fill="#60B555" transform="translate(375,210)"/>
</svg>
